<?xml version="1.0" encoding="UTF-8"?> <svg xmlns="http://www.w3.org/2000/svg" width="521" height="398" viewBox="0 0 521 398" fill="none"><path d="M512.755 341.464C512.755 341.464 512.691 341.464 512.659 341.464L502.741 314.473C504.362 313.138 505.411 311.135 505.411 308.846C505.411 306.176 503.949 303.855 501.819 302.584L503.027 296.543C506.651 296.098 509.48 293.046 509.48 289.295C509.48 285.258 506.206 281.951 502.137 281.951C501.692 281.951 501.247 282.015 500.802 282.079L470.505 236.84C471.395 235.632 471.936 234.138 471.936 232.517C471.936 228.48 468.661 225.173 464.592 225.173C463.511 225.173 462.494 225.428 461.572 225.841L433.024 196.148C433.533 195.163 433.819 194.05 433.819 192.874C433.819 188.837 430.544 185.53 426.475 185.53C425.267 185.53 424.122 185.848 423.137 186.389L399.548 164.326C399.93 163.436 400.152 162.45 400.152 161.401C400.152 157.364 396.878 154.058 392.809 154.058C391.601 154.058 390.456 154.375 389.439 154.916L370.714 137.399C371.096 136.509 371.318 135.524 371.318 134.475C371.318 130.437 368.044 127.131 363.975 127.131C361.845 127.131 359.937 128.053 358.57 129.515L296.356 103.193C296.356 99.1551 293.081 95.8807 289.012 95.8807C286.405 95.8807 284.116 97.2477 282.813 99.3141L225.367 90.5398C224.731 87.1382 221.775 84.5314 218.183 84.5314C214.972 84.5314 212.301 86.5978 211.284 89.4272H176.759C175.742 86.566 173.072 84.5314 169.861 84.5314C166.078 84.5314 163.026 87.3926 162.612 91.0485L131.712 98.2332C130.408 96.1986 128.151 94.8316 125.545 94.8316C122.111 94.8316 119.282 97.1841 118.455 100.363L96.3289 102.366C95.1526 99.8545 92.6412 98.106 89.6846 98.106C87.5229 98.106 85.5836 99.0597 84.2484 100.586L58.6569 90.1266C58.6569 89.904 58.7205 89.6497 58.7205 89.4272C58.7205 85.3897 55.4461 82.0835 51.3769 82.0835C50.1053 82.0835 48.929 82.4332 47.8799 83.0054L28.7101 63.8357L20.5717 45.6196C22.193 44.2844 23.2739 42.2498 23.2739 39.9927C23.2739 36.4957 20.7943 33.571 17.5198 32.8398L16.6297 1.65311L12.4651 0L5.6301 7.12111L4.9625 8.42453L0.321063 33.9524V34.779L3.78625 55.7926C1.62448 57.0643 0.162109 59.385 0.162109 62.0872C0.162109 66.1246 3.43655 69.4308 7.50575 69.4308C7.88724 69.4308 8.26873 69.3672 8.65022 69.3037L16.4071 82.4014C15.358 83.673 14.6904 85.2944 14.6904 87.0747C14.6904 91.1121 17.9649 94.4183 22.0341 94.4183C23.4647 94.4183 24.7999 94.005 25.9126 93.2738L61.5817 121.568C61.2956 122.331 61.1366 123.157 61.1366 124.015C61.1366 128.053 64.411 131.359 68.4803 131.359C70.8646 131.359 72.9945 130.183 74.3297 128.403L95.7884 135.238C95.8838 137.972 97.4416 140.292 99.7305 141.468L95.1208 174.658C91.7828 175.326 89.2714 178.282 89.2714 181.843C89.2714 185.403 91.6557 188.169 94.8665 188.932L96.7422 207.402C94.2625 208.579 92.5458 211.09 92.5458 214.015C92.5458 216.018 93.3406 217.83 94.644 219.133L83.3265 242.181C83.104 242.181 82.8496 242.118 82.6271 242.118C78.5897 242.118 75.2835 245.392 75.2835 249.461C75.2835 250.542 75.5378 251.591 75.9829 252.513L54.8103 273.749C53.8566 273.304 52.8075 273.018 51.663 273.018C47.6256 273.018 44.3194 276.293 44.3194 280.362C44.3194 282.778 45.4956 284.908 47.3077 286.243L38.2473 315.999C34.3689 316.19 31.2534 319.369 31.2534 323.311C31.2534 327.253 34.5278 330.655 38.597 330.655C39.0103 330.655 39.4236 330.591 39.8369 330.528L57.9258 362.7C56.7495 364.003 56.0183 365.72 56.0183 367.596C56.0183 371.633 59.2928 374.939 63.362 374.939C66.5092 374.939 69.1797 372.936 70.2287 370.139L110.317 370.647L112.669 367.437L108.632 355.07C110.253 353.735 111.302 351.732 111.302 349.475C111.302 345.437 108.028 342.131 103.959 342.131C102.306 342.131 100.811 342.703 99.5715 343.625L79.4162 333.166C79.448 332.848 79.5116 332.499 79.5116 332.149C79.5116 329.447 78.0492 327.126 75.8875 325.854L80.5925 301.693C84.1213 301.153 86.8235 298.165 86.8235 294.477C86.8235 293.555 86.6327 292.697 86.3466 291.902L110.825 271.238C111.906 271.874 113.146 272.255 114.513 272.255C118.551 272.255 121.857 268.981 121.857 264.912C121.857 263.545 121.444 262.273 120.808 261.192L137.212 241.641C138.006 241.927 138.865 242.118 139.755 242.118C140.105 242.118 140.423 242.054 140.74 242.022L153.552 266.851C152.312 268.154 151.549 269.903 151.549 271.842C151.549 274.099 152.598 276.102 154.188 277.437L145.954 299.563C145.954 299.563 145.891 299.563 145.827 299.563C141.79 299.563 138.483 302.838 138.483 306.907C138.483 310.976 141.726 314.219 145.763 314.219L160.959 358.027C159.656 359.362 158.829 361.174 158.829 363.177C158.829 367.214 162.104 370.52 166.173 370.52C167.127 370.52 168.049 370.33 168.875 369.98L186.773 387.147C186.36 388.069 186.106 389.086 186.106 390.167C186.106 394.204 189.38 397.511 193.449 397.511C196.628 397.511 199.331 395.476 200.316 392.615H228.451L230.676 389.181L225.494 377.641C226.83 376.306 227.624 374.494 227.624 372.46C227.624 368.422 224.35 365.116 220.281 365.116C218.405 365.116 216.72 365.847 215.449 366.991L203.114 361.015C203.114 360.761 203.209 360.506 203.209 360.22C203.209 356.246 200.03 353.035 196.088 352.908L182.418 310.627C184.167 309.291 185.311 307.193 185.311 304.841C185.311 302.902 184.548 301.185 183.34 299.881L199.362 269.299C199.712 269.362 200.03 269.394 200.38 269.394C204.417 269.394 207.723 266.12 207.723 262.051C207.723 259.285 206.197 256.932 203.94 255.661L208.995 225.269C210.521 225.014 211.856 224.283 212.905 223.266L255.25 243.485C255.25 243.707 255.187 243.93 255.187 244.152C255.187 246.346 256.172 248.285 257.667 249.62L244.092 286.116C244.092 286.116 244.028 286.116 243.965 286.116C239.927 286.116 236.621 289.39 236.621 293.46C236.621 296.321 238.274 298.769 240.627 299.977L235.032 342.926C231.725 343.657 229.277 346.582 229.277 350.079C229.277 354.116 232.552 357.423 236.621 357.423C237.13 357.423 237.607 357.359 238.083 357.264L254.742 386.225C254.011 387.369 253.566 388.736 253.566 390.199C253.566 394.236 256.84 397.542 260.909 397.542C264.088 397.542 266.79 395.508 267.776 392.647H309.962L312.092 388.991L303.509 373.985C304.621 372.714 305.321 371.061 305.321 369.217C305.321 365.179 302.046 361.873 297.977 361.873C295.943 361.873 294.13 362.7 292.795 364.003L274.579 355.293C274.579 355.038 274.643 354.784 274.643 354.53C274.643 351.541 272.831 348.966 270.256 347.822L272.926 311.231C276.328 310.595 278.934 307.638 278.934 304.046C278.934 302.361 278.33 300.835 277.377 299.595L295.911 274.004C296.578 274.195 297.246 274.322 297.977 274.322C301.633 274.322 304.653 271.619 305.194 268.122L310.979 267.01C312.124 268.949 314.095 270.284 316.416 270.57L319.245 283.128C317.115 284.399 315.653 286.72 315.653 289.39C315.653 293.428 318.927 296.734 322.996 296.734C323.155 296.734 323.282 296.702 323.441 296.702L342.325 347.313C340.704 348.648 339.623 350.683 339.623 352.94C339.623 356.977 342.897 360.284 346.966 360.284C348.047 360.284 349.065 360.029 349.987 359.616L369.093 380.375C368.807 381.17 368.616 381.997 368.616 382.887C368.616 386.924 371.89 390.23 375.96 390.23C378.916 390.23 381.459 388.482 382.604 385.939H422.883L424.885 382.092L410.421 361.492C411.057 360.411 411.438 359.171 411.438 357.836C411.438 353.798 408.164 350.492 404.094 350.492C402.028 350.492 400.152 351.351 398.817 352.749L382.795 346.105C382.795 345.882 382.858 345.692 382.858 345.469C382.858 341.654 379.933 338.571 376.214 338.221L363.593 286.529C365.469 285.321 366.709 283.255 366.867 280.902L379.647 277.31C380.983 279.186 383.144 280.394 385.592 280.394C387.595 280.394 389.439 279.567 390.774 278.264L404.126 284.622C404.126 284.813 404.063 285.035 404.063 285.226C404.063 287.388 405.016 289.327 406.51 290.662L397.959 311.072C397.959 311.072 397.704 311.04 397.545 311.04C393.508 311.04 390.202 314.314 390.202 318.384C390.202 322.453 393.476 325.727 397.545 325.727C398.404 325.727 399.199 325.568 399.93 325.282L422.66 353.639C421.961 354.752 421.547 356.056 421.547 357.486C421.547 361.523 424.822 364.83 428.891 364.83C432.96 364.83 436.235 361.555 436.235 357.486C436.235 355.642 435.535 353.989 434.423 352.717L443.896 336.091C444.278 336.186 444.659 336.218 445.041 336.25L449.746 355.833C447.743 357.136 446.408 359.394 446.408 361.969C446.408 366.006 449.682 369.312 453.751 369.312C456.263 369.312 458.488 368.041 459.823 366.101L490.279 374.081C491.105 377.196 493.935 379.517 497.336 379.517C501.374 379.517 504.68 376.243 504.68 372.173C504.68 370.711 504.235 369.376 503.504 368.231L511.197 356.087C511.738 356.214 512.278 356.278 512.818 356.278C516.856 356.278 520.162 353.004 520.162 348.934C520.162 344.865 516.888 341.591 512.818 341.591L512.755 341.464ZM428.859 350.015C428.859 350.015 428.796 350.015 428.764 350.015L414.585 291.648C417.001 290.44 418.686 287.992 418.686 285.099C418.686 283.732 418.273 282.428 417.605 281.347L460.745 238.748C461.063 238.939 461.349 239.129 461.699 239.257L452.098 287.07C448.156 287.197 445.009 290.408 445.009 294.382C445.009 297.338 446.757 299.881 449.301 301.026L445.2 321.499C441.321 321.69 438.238 324.869 438.238 328.779C438.238 330.464 438.81 331.99 439.763 333.23L430.163 350.111C429.749 350.047 429.304 349.983 428.859 349.983V350.015ZM378.28 272.51L365.532 276.102C364.197 274.226 362.035 272.986 359.556 272.986C357.076 272.986 354.882 274.226 353.547 276.134L324.522 264.435C324.586 264.053 324.649 263.672 324.649 263.29C324.649 261.892 324.236 260.62 323.569 259.507L350.305 233.598C351.449 234.361 352.816 234.806 354.31 234.806C355.327 234.806 356.313 234.583 357.203 234.202L380.251 268.059C379.139 269.267 378.439 270.825 378.344 272.541L378.28 272.51ZM354.215 352.527L369.061 348.871C370.047 350.651 371.731 351.986 373.798 352.495L373.639 375.861C373.13 376.02 372.653 376.243 372.177 376.497L353.452 356.119C353.96 355.134 354.247 354.021 354.247 352.845C354.247 352.749 354.247 352.622 354.215 352.527ZM329.291 292.983C329.927 291.902 330.308 290.662 330.308 289.327C330.308 285.639 327.574 282.619 324.045 282.11L321.184 269.458C322.011 268.917 322.742 268.25 323.282 267.455L352.307 279.154C352.244 279.535 352.18 279.917 352.18 280.298C352.18 284.081 355.073 287.165 358.761 287.547L371.223 338.634L329.259 292.983H329.291ZM290.92 371.156L265.996 384.89C264.66 383.586 262.88 382.791 260.877 382.791C260.114 382.791 259.351 382.95 258.652 383.173L242.248 354.657C242.789 354.021 243.202 353.29 243.488 352.463L259.987 355.006C260.273 358.821 263.389 361.81 267.267 361.81C269.302 361.81 271.114 360.983 272.449 359.68L290.665 368.39C290.665 368.645 290.602 368.899 290.602 369.153C290.602 369.853 290.729 370.52 290.92 371.156ZM249.973 297.561L264.311 303.283C264.311 303.506 264.247 303.728 264.247 303.982C264.247 305.636 264.819 307.161 265.741 308.401L240.023 342.513L245.491 300.549C247.335 300.167 248.924 299.055 249.973 297.561ZM260.464 351.796L243.869 349.221C243.71 347.695 243.075 346.296 242.089 345.183L267.999 310.786L265.328 347.44C263.103 348.044 261.291 349.666 260.464 351.764V351.796ZM271.559 296.671C271.559 296.671 271.527 296.671 271.495 296.671L264.915 251.019C267.744 250.002 269.811 247.331 269.811 244.121C269.811 242.754 269.397 241.482 268.761 240.369L281.923 228.257C282.877 228.956 283.989 229.401 285.197 229.56L294.353 260.556C292.128 261.828 290.602 264.18 290.602 266.914C290.602 268.472 291.079 269.903 291.905 271.079L273.244 296.861C272.704 296.734 272.131 296.639 271.559 296.639V296.671ZM158.829 264.498C158.48 264.498 158.162 264.562 157.844 264.594L145.032 239.765C145.223 239.574 145.382 239.384 145.509 239.161L193.195 260.588C193.1 261.065 193.036 261.542 193.036 262.019C193.036 262.019 193.036 262.05 193.036 262.082L165.378 268.599C164.17 266.183 161.722 264.498 158.829 264.498ZM114.45 257.568C114.45 257.568 114.195 257.6 114.036 257.6L103.323 220.373C105.58 219.133 107.106 216.749 107.106 213.983C107.106 210.55 104.722 207.657 101.511 206.894L99.6351 188.423C99.6351 188.423 99.6987 188.392 99.7305 188.36L133.905 230.26C132.92 231.5 132.348 233.057 132.348 234.742C132.348 236.109 132.729 237.349 133.397 238.462L116.993 258.045C116.198 257.759 115.34 257.568 114.45 257.568ZM28.9645 89.3318L44.4147 90.7624C45.0187 94.1958 48.0071 96.8344 51.6312 96.8344C52.1081 96.8344 52.5849 96.7708 53.03 96.7072L62.9487 116.386L28.9645 89.4272C28.9645 89.4272 28.9645 89.3636 28.9645 89.3318ZM74.9338 120.614L85.5836 111.395C86.7917 112.285 88.2858 112.825 89.9072 112.825C90.384 112.825 90.8609 112.762 91.3377 112.666L98.6814 129.102C98.1409 129.515 97.6641 129.992 97.2508 130.533L75.7603 123.666C75.7285 122.553 75.4106 121.504 74.9338 120.582V120.614ZM361.272 141.246C362.162 141.627 363.116 141.818 364.133 141.818C365.342 141.818 366.486 141.5 367.503 140.96L386.228 158.477C385.847 159.367 385.624 160.352 385.624 161.401C385.624 164.58 387.659 167.283 390.488 168.268L387.245 195.608C384.925 195.862 382.922 197.198 381.777 199.105L335.427 183.941C335.427 183.782 335.49 183.623 335.49 183.464C335.49 181.843 334.95 180.348 334.028 179.14L361.272 141.214V141.246ZM321.82 179.84L275.533 166.583C275.533 166.583 275.565 166.329 275.565 166.202C275.565 163.531 274.134 161.242 272.004 159.939L288.345 110.473C288.631 110.504 288.885 110.568 289.171 110.568C289.807 110.568 290.443 110.441 291.047 110.282L323.918 177.487C323.06 178.091 322.329 178.886 321.82 179.808V179.84ZM225.494 134.061C225.844 133.203 226.035 132.249 226.035 131.264C226.035 130.882 225.971 130.469 225.908 130.119L282.94 107.039C283.512 107.993 284.307 108.819 285.261 109.424L268.889 158.922C268.666 158.922 268.444 158.858 268.221 158.858C266.345 158.858 264.629 159.589 263.325 160.765L225.431 134.061H225.494ZM224.731 127.099C223.682 125.605 222.093 124.492 220.249 124.111L219.836 99.0915C221.997 98.6782 223.778 97.2795 224.827 95.4038L281.637 104.083L224.731 127.099ZM216.561 98.9962L216.974 124.206C213.764 125.001 211.379 127.862 211.379 131.295C211.379 131.677 211.443 132.09 211.506 132.44L191.16 140.674C189.921 138.703 187.791 137.399 185.343 137.272L173.707 98.265C175.233 97.4066 176.41 96.0396 176.982 94.3547H211.538C212.333 96.6436 214.24 98.3603 216.593 98.9962H216.561ZM141.408 227.621L141.726 170.207C142.489 170.048 143.157 169.73 143.824 169.381L201.175 214.905C200.729 215.859 200.443 216.94 200.443 218.052C200.443 218.084 200.443 218.116 200.443 218.179L146.272 231.468C145.318 229.56 143.538 228.13 141.408 227.621ZM203.177 212.362L146.208 167.155C147.003 165.979 147.448 164.58 147.448 163.086C147.448 162.705 147.385 162.291 147.321 161.942L179.144 149.066C180.479 150.783 182.545 151.928 184.929 151.928C185.375 151.928 185.82 151.864 186.233 151.8L204.131 211.726C203.781 211.917 203.463 212.139 203.177 212.393V212.362ZM170.051 99.2823C170.21 99.2823 170.369 99.2505 170.528 99.2187L182.068 137.844C179.43 138.957 177.586 141.564 177.586 144.584C177.586 145.093 177.649 145.601 177.745 146.11L146.113 158.89C144.778 156.982 142.584 155.743 140.105 155.743C138.006 155.743 136.099 156.633 134.764 158.063L109.617 138.099C110.062 137.145 110.349 136.064 110.349 134.951C110.349 133.044 109.617 131.327 108.409 130.024L122.969 109.042C123.828 109.392 124.718 109.582 125.703 109.582C129.487 109.582 132.538 106.721 132.952 103.065L163.852 95.8807C165.156 97.9153 167.413 99.2823 170.02 99.2823H170.051ZM120.331 107.198L105.771 128.18C104.912 127.83 104.022 127.64 103.037 127.64C102.56 127.64 102.083 127.703 101.606 127.799L94.2625 111.363C95.5659 110.377 96.5196 108.978 96.9329 107.325L119.059 105.322C119.377 106.022 119.79 106.626 120.299 107.198H120.331ZM107.615 140.674L133.142 160.924C132.92 161.592 132.793 162.323 132.793 163.054C132.793 166.52 135.209 169.412 138.452 170.175L138.134 227.589C137.561 227.717 137.021 227.939 136.48 228.193L102.306 186.293C103.291 185.053 103.863 183.496 103.863 181.811C103.863 178.981 102.242 176.565 99.8894 175.326L104.499 142.136C105.675 141.914 106.693 141.373 107.583 140.642L107.615 140.674ZM194.562 257.632L146.876 236.205C146.971 235.728 147.035 235.251 147.035 234.774C147.035 234.742 147.035 234.711 147.035 234.647L201.206 221.358C201.874 222.662 202.891 223.743 204.195 224.474L199.14 254.866C197.296 255.184 195.675 256.233 194.594 257.663L194.562 257.632ZM212.079 212.171C210.871 211.281 209.377 210.709 207.723 210.709C207.564 210.709 207.405 210.74 207.247 210.772L189.253 150.497C191.065 149.162 192.273 147.032 192.273 144.616C192.273 144.33 192.21 144.075 192.178 143.821L212.683 135.524C214.018 137.431 216.211 138.671 218.691 138.671C220.567 138.671 222.284 137.94 223.587 136.763L261.481 163.468C261.132 164.326 260.941 165.28 260.941 166.265C260.941 167.505 261.259 168.65 261.799 169.667L212.11 212.234L212.079 212.171ZM274.611 169.73L320.835 182.955C320.835 183.146 320.771 183.305 320.771 183.496C320.771 184.831 321.153 186.039 321.757 187.12L290.22 216.177C289.076 215.445 287.709 215 286.246 215C285.611 215 285.007 215.096 284.402 215.255L271.813 172.592C272.99 171.924 273.975 170.938 274.643 169.762L274.611 169.73ZM297.945 259.571C297.945 259.571 297.659 259.603 297.5 259.603L288.535 229.211C291.46 228.257 293.558 225.523 293.558 222.28C293.558 220.882 293.145 219.61 292.477 218.497L323.95 189.504C325.126 190.331 326.557 190.808 328.115 190.808C329.068 190.808 329.959 190.617 330.785 190.299L349.414 221.931C347.888 223.266 346.935 225.205 346.935 227.399C346.935 228.797 347.348 230.101 348.016 231.214L321.28 257.123C320.135 256.36 318.768 255.915 317.274 255.915C313.618 255.915 310.598 258.617 310.058 262.114L304.272 263.227C303 261.065 300.679 259.571 297.977 259.571H297.945ZM359.047 221.899C357.744 220.786 356.09 220.055 354.247 220.055C353.547 220.055 352.911 220.182 352.276 220.373L333.487 188.455C333.869 188.042 334.187 187.597 334.473 187.088L380.76 202.22C380.76 202.443 380.696 202.666 380.696 202.888C380.696 203.905 380.919 204.891 381.3 205.781L359.111 221.899H359.047ZM390.424 196.021L393.667 168.681C394.589 168.586 395.447 168.332 396.242 167.918L419.831 189.981C419.449 190.871 419.195 191.857 419.195 192.906C419.195 195.958 421.071 198.596 423.741 199.677L418.209 232.612C417.192 232.676 416.207 232.93 415.348 233.375L393.731 207.307C394.684 206.067 395.257 204.541 395.257 202.856C395.257 199.677 393.222 196.975 390.393 195.989L390.424 196.021ZM419.131 247.204C422.946 246.95 425.998 243.803 425.998 239.924C425.998 236.872 424.122 234.234 421.452 233.153L426.984 200.218C427.906 200.154 428.764 199.963 429.559 199.582L458.107 229.243C457.598 230.228 457.28 231.341 457.28 232.549C457.28 233.979 457.693 235.315 458.425 236.427L415.348 278.963C414.967 278.709 414.553 278.486 414.108 278.296L419.131 247.172V247.204ZM490.756 308.846C490.756 309.037 490.787 309.196 490.819 309.387L481.886 312.121C480.614 309.927 478.262 308.433 475.56 308.433C474.161 308.433 472.889 308.846 471.777 309.514L458.806 297.783C459.251 296.925 459.537 295.971 459.633 294.954L495.047 290.916C495.493 292.824 496.669 294.445 498.29 295.462L497.05 301.598C493.49 302.107 490.756 305.127 490.756 308.815V308.846ZM495.016 287.642L459.124 291.711C458.425 289.899 457.026 288.437 455.277 287.674L464.878 239.829C465.419 239.829 465.959 239.733 466.468 239.574L496.605 284.527C495.842 285.417 495.302 286.434 495.047 287.61L495.016 287.642ZM448.379 322.039L452.448 301.693C454.006 301.662 455.468 301.121 456.644 300.263L469.392 311.771C468.661 312.916 468.216 314.283 468.216 315.745C468.216 318.066 469.329 320.132 471.014 321.467L455.277 354.625C455.023 354.561 454.737 354.561 454.451 354.53L449.714 334.819C451.621 333.484 452.893 331.291 452.893 328.779C452.893 325.727 451.049 323.152 448.411 322.039H448.379ZM458.202 356.056L473.938 322.898C474.447 323.025 474.988 323.089 475.528 323.089C475.878 323.089 476.196 323.025 476.513 322.993L492.822 366.133C491.868 366.864 491.074 367.818 490.565 368.899L460.904 361.142C460.714 359.076 459.696 357.264 458.17 356.024L458.202 356.056ZM497.241 364.639C496.732 364.639 496.256 364.703 495.81 364.798L479.565 321.881C479.756 321.753 479.915 321.594 480.074 321.467L506.333 345.215C505.729 346.264 505.379 347.472 505.379 348.775C505.379 350.492 505.983 352.018 506.969 353.29L499.498 365.052C498.767 364.83 498.036 364.671 497.209 364.671L497.241 364.639ZM507.605 341.94L482.109 318.892C482.554 317.938 482.84 316.889 482.84 315.745C482.84 315.554 482.808 315.395 482.776 315.204L491.709 312.47C492.981 314.664 495.334 316.158 498.036 316.158C498.036 316.158 498.099 316.158 498.131 316.158L507.605 341.94ZM358.57 139.307L331.453 177.042C330.435 176.502 329.291 176.184 328.051 176.184C327.638 176.184 327.256 176.247 326.875 176.311L293.876 108.819C294.226 108.533 294.512 108.215 294.798 107.866L356.758 134.093C356.758 134.093 356.726 134.379 356.726 134.538C356.726 136.382 357.426 138.067 358.57 139.37V139.307ZM82.5317 105.132C82.5317 105.132 82.4999 105.354 82.4999 105.481C82.4999 106.721 82.8496 107.866 83.3901 108.915L72.772 118.102C71.5322 117.18 70.038 116.608 68.3849 116.608C67.8126 116.608 67.2722 116.672 66.7318 116.799L55.9229 95.3084C56.2091 95.0859 56.4952 94.8634 56.7813 94.609L82.5635 105.132H82.5317ZM44.7644 86.6614C44.669 86.9157 44.6055 87.17 44.5101 87.4561L29.187 86.0256C28.7101 82.4332 25.6582 79.6674 21.9387 79.6674C21.4619 79.6674 20.985 79.731 20.5081 79.8264L12.8466 66.9194C13.3552 66.3471 13.8003 65.7113 14.1182 65.0119L24.8317 66.665L25.086 67.0465L44.7326 86.6932L44.7644 86.6614ZM11.6067 45.7786L8.49126 54.362L5.69369 37.4176L8.96812 38.8164C8.90454 39.2297 8.84096 39.643 8.84096 40.088C8.84096 42.4088 9.92184 44.4434 11.6067 45.7786ZM23.2421 63.1363L14.7858 61.8329C14.6904 59.3214 13.387 57.1596 11.416 55.888L14.5633 47.2091C15.0719 47.3363 15.6124 47.3999 16.1846 47.3999C16.1846 47.3999 16.1846 47.3999 16.2164 47.3999L23.2421 63.1045V63.1363ZM9.63573 10.0459L12.1472 7.53439L12.8784 33.5709C11.8293 34.1114 10.9391 34.8744 10.2398 35.7963L5.34399 33.6981L9.63573 10.0141V10.0459ZM98.9993 221.231C99.2854 221.231 99.5397 221.327 99.8259 221.327C99.953 221.327 100.08 221.295 100.239 221.295L110.953 258.522C108.695 259.762 107.17 262.146 107.17 264.912C107.17 265.834 107.36 266.692 107.646 267.487L83.1675 288.151C82.6589 287.865 82.1503 287.642 81.578 287.451L83.6126 256.678C87.1732 256.169 89.939 253.149 89.939 249.461C89.939 247.427 89.1124 245.583 87.7454 244.248L98.9993 221.263V221.231ZM96.6468 350.174L69.0843 363.081C68.4485 362.255 67.6219 361.555 66.7 361.078L72.009 339.429C72.009 339.429 72.0726 339.429 72.1362 339.429C74.0754 339.429 75.8239 338.666 77.1273 337.458L96.8057 347.663C96.6786 348.235 96.5832 348.807 96.5832 349.411C96.5832 349.666 96.6468 349.92 96.6468 350.206V350.174ZM45.0187 326.649C54.6513 329.224 60.8505 330.846 64.8243 331.895C64.8243 331.958 64.8243 332.022 64.8243 332.085C64.8243 334.947 66.4774 337.394 68.8617 338.602L63.5527 360.22C63.5527 360.22 63.3937 360.22 63.2984 360.22C62.9169 360.22 62.5354 360.284 62.1857 360.347L44.065 328.08C44.4465 327.666 44.7644 327.19 45.0187 326.681V326.649ZM65.6509 328.747C60.3736 327.349 52.8392 325.346 45.8771 323.502C45.8771 323.406 45.8771 323.343 45.8771 323.248C45.8771 320.831 44.7008 318.701 42.8888 317.366L51.9491 287.61C54.0791 287.515 55.9547 286.529 57.2264 284.972L72.3587 292.665C72.2316 293.237 72.1044 293.809 72.1044 294.445C72.1044 297.147 73.5668 299.468 75.7285 300.74L71.0235 324.901C68.671 325.25 66.6682 326.713 65.6191 328.779L65.6509 328.747ZM80.3382 256.36L78.3036 287.197C76.5233 287.483 74.9656 288.405 73.8529 289.74L58.7205 282.047C58.8477 281.475 58.9748 280.902 58.9748 280.267C58.9748 279.122 58.6887 278.073 58.2437 277.119L79.3845 255.947C79.7024 256.106 80.0203 256.233 80.37 256.328L80.3382 256.36ZM106.883 365.624L72.2633 365.179L97.6959 353.258C98.9993 355.324 101.288 356.691 103.895 356.691C103.895 356.691 103.959 356.691 103.99 356.691L106.915 365.624H106.883ZM158.734 279.122C158.734 279.122 158.798 279.122 158.861 279.122C162.899 279.122 166.205 275.848 166.205 271.778C166.205 271.778 166.205 271.747 166.205 271.715L193.863 265.198C194.181 265.834 194.562 266.438 195.071 266.946L179.048 297.497C178.699 297.433 178.381 297.402 178.031 297.402C174.375 297.402 171.387 300.072 170.814 303.569L152.853 304.714C152.439 303.315 151.645 302.107 150.532 301.185L158.766 279.059L158.734 279.122ZM213.223 374.049L196.215 383.332C195.357 382.982 194.435 382.791 193.449 382.791C192.273 382.791 191.16 383.109 190.175 383.586L172.531 366.674C172.976 365.847 173.294 364.957 173.389 364.003L188.935 362.509C189.921 365.434 192.623 367.532 195.865 367.532C197.868 367.532 199.712 366.705 201.016 365.402L213.096 371.22C213.032 371.601 212.969 371.983 212.969 372.396C212.969 372.968 213.032 373.509 213.16 374.017L213.223 374.049ZM153.043 308.02L171.005 306.875C171.609 308.878 173.008 310.531 174.884 311.421L165.315 355.579L150.373 312.534C151.772 311.421 152.726 309.832 153.012 308.02H153.043ZM188.681 359.266L173.072 360.761C172.34 358.631 170.655 356.946 168.494 356.214L177.936 312.629L191.447 354.371C189.952 355.515 188.903 357.232 188.649 359.235L188.681 359.266ZM200.348 387.687C200.062 386.861 199.649 386.129 199.108 385.494L214.654 376.974C215.989 378.659 218.024 379.74 220.344 379.74C220.599 379.74 220.853 379.676 221.107 379.676L224.7 387.687H200.348ZM214.972 218.815C214.972 218.561 215.035 218.307 215.035 218.052C215.035 216.812 214.717 215.668 214.177 214.651L263.866 172.083C265.074 172.973 266.568 173.545 268.221 173.545C268.38 173.545 268.507 173.513 268.666 173.513L281.446 216.812C279.888 218.148 278.903 220.119 278.903 222.344C278.903 223.584 279.252 224.76 279.793 225.809L266.504 238.049C265.36 237.286 263.961 236.84 262.467 236.84C260.401 236.84 258.557 237.699 257.221 239.066L214.94 218.879L214.972 218.815ZM261.831 252.354L268.348 297.434C267.108 298.038 266.059 298.991 265.328 300.168L251.181 294.509C251.245 294.127 251.308 293.778 251.308 293.364C251.308 291.107 250.259 289.104 248.67 287.769L261.863 252.323L261.831 252.354ZM267.776 387.687C267.776 387.687 267.776 387.687 267.776 387.655L292.509 374.017C293.844 375.511 295.784 376.497 297.945 376.497C298.39 376.497 298.835 376.433 299.249 376.37L305.734 387.687H267.776ZM328.878 297.338L369.347 341.368C368.584 342.513 368.139 343.88 368.139 345.374C368.139 345.501 368.139 345.628 368.171 345.755L353.325 349.411C352.085 347.122 349.701 345.533 346.903 345.533C346.903 345.533 346.871 345.533 346.839 345.533L328.846 297.338H328.878ZM382.954 380.948C382.826 380.407 382.604 379.867 382.35 379.39L400.216 363.971C401.329 364.639 402.632 365.052 404.031 365.052C404.953 365.052 405.811 364.862 406.606 364.575L418.114 380.948H382.985H382.954ZM396.751 357.105C396.751 357.327 396.687 357.518 396.687 357.74C396.687 359.203 397.132 360.538 397.863 361.682L380.22 376.91C379.266 376.211 378.121 375.734 376.882 375.543L377.04 352.495C378.471 352.177 379.743 351.446 380.728 350.429L396.751 357.073V357.105ZM392.809 273.718C392.809 273.463 392.872 273.209 392.872 272.955C392.872 268.917 389.598 265.611 385.529 265.611C384.575 265.611 383.685 265.802 382.826 266.12L359.715 232.167C360.827 230.864 361.527 229.211 361.527 227.367C361.527 226.35 361.304 225.364 360.923 224.474L383.113 208.356C384.416 209.469 386.069 210.2 387.913 210.2C389.089 210.2 390.202 209.882 391.187 209.373L412.805 235.442C411.851 236.682 411.279 238.208 411.279 239.892C411.279 242.976 413.186 245.583 415.857 246.664L410.834 277.755C408.927 277.882 407.242 278.677 406.002 279.98L392.745 273.686L392.809 273.718ZM410.993 292.379C410.993 292.379 411.215 292.411 411.343 292.411C411.343 292.411 411.374 292.411 411.406 292.411L425.076 348.712L403.713 322.071C404.412 320.959 404.826 319.655 404.826 318.225C404.826 316.063 403.872 314.155 402.409 312.82L410.993 292.379Z" fill="#E02F35"></path></svg> 